# xmcd
#
# Track frame offsets:
#	150
#	19217
#	32037
#	52085
#	67710
#	82230
#	102085
#	119140
#	133590
#	153727
#	172735
#	185567
#	200867
#	220257
#	236275
#
# Disc length: 3318 seconds
#
# Revision: 0
# Processed by: cddbd v1.5.1PL2 Copyright (c) Steve Scherf et al.
# Submitted via: EasyCDDAExtractor 9.0.0.1
#
DISCID=d80cf40f
DTITLE=Banda Rodeio - Festra country no interior
DYEAR=1900
DGENRE=Country
TTITLE0=Festa country no interior
TTITLE1=Cowboy de minas
TTITLE2=Sonhar por uma paixão
TTITLE3=Peão porengano
TTITLE4=Coração de cowboy
TTITLE5=Louco desejo
TTITLE6=Cowboy metálico
TTITLE7=Baile country
TTITLE8=Pra sempre em minha vida
TTITLE9=Tarde para amar
TTITLE10=Mistura amarga
TTITLE11=Primeiro rodeio
TTITLE12=Sua chance de amar
TTITLE13=O sonho acabou
TTITLE14=Por você...mulher
EXTD=
EXTT0=
EXTT1=
EXTT2=
EXTT3=
EXTT4=
EXTT5=
EXTT6=
EXTT7=
EXTT8=
EXTT9=
EXTT10=
EXTT11=
EXTT12=
EXTT13=
EXTT14=
PLAYORDER=
